<svg id="visual" viewBox="0 0 900 300" width="900" height="300" xmlns="http://www.w3.org/2000/svg" xmlns:xlink="http://www.w3.org/1999/xlink" version="1.1"><rect x="0" y="0" width="900" height="300" fill="#1affc6"></rect><path d="M0 99L21.5 102.8C43 106.7 86 114.3 128.8 112.5C171.7 110.7 214.3 99.3 257.2 99.3C300 99.3 343 110.7 385.8 116.3C428.7 122 471.3 122 514.2 119C557 116 600 110 642.8 102.8C685.7 95.7 728.3 87.3 771.2 84C814 80.7 857 82.3 878.5 83.2L900 84L900 0L878.5 0C857 0 814 0 771.2 0C728.3 0 685.7 0 642.8 0C600 0 557 0 514.2 0C471.3 0 428.7 0 385.8 0C343 0 300 0 257.2 0C214.3 0 171.7 0 128.8 0C86 0 43 0 21.5 0L0 0Z" fill="#fa7268"></path><path d="M0 97L21.5 91.2C43 85.3 86 73.7 128.8 74.5C171.7 75.3 214.3 88.7 257.2 92.2C300 95.7 343 89.3 385.8 87.2C428.7 85 471.3 87 514.2 90C557 93 600 97 642.8 98.7C685.7 100.3 728.3 99.7 771.2 94C814 88.3 857 77.7 878.5 72.3L900 67L900 0L878.5 0C857 0 814 0 771.2 0C728.3 0 685.7 0 642.8 0C600 0 557 0 514.2 0C471.3 0 428.7 0 385.8 0C343 0 300 0 257.2 0C214.3 0 171.7 0 128.8 0C86 0 43 0 21.5 0L0 0Z" fill="#ef5f67"></path><path d="M0 62L21.5 62C43 62 86 62 128.8 62C171.7 62 214.3 62 257.2 62.7C300 63.3 343 64.7 385.8 61.7C428.7 58.7 471.3 51.3 514.2 51.7C557 52 600 60 642.8 64.8C685.7 69.7 728.3 71.3 771.2 67.7C814 64 857 55 878.5 50.5L900 46L900 0L878.5 0C857 0 814 0 771.2 0C728.3 0 685.7 0 642.8 0C600 0 557 0 514.2 0C471.3 0 428.7 0 385.8 0C343 0 300 0 257.2 0C214.3 0 171.7 0 128.8 0C86 0 43 0 21.5 0L0 0Z" fill="#e34c67"></path><path d="M0 42L21.5 44.5C43 47 86 52 128.8 51.3C171.7 50.7 214.3 44.3 257.2 44.3C300 44.3 343 50.7 385.8 53.3C428.7 56 471.3 55 514.2 54.8C557 54.7 600 55.3 642.8 54.5C685.7 53.7 728.3 51.3 771.2 46.8C814 42.3 857 35.7 878.5 32.3L900 29L900 0L878.5 0C857 0 814 0 771.2 0C728.3 0 685.7 0 642.8 0C600 0 557 0 514.2 0C471.3 0 428.7 0 385.8 0C343 0 300 0 257.2 0C214.3 0 171.7 0 128.8 0C86 0 43 0 21.5 0L0 0Z" fill="#d53867"></path><path d="M0 35L21.5 32.3C43 29.7 86 24.3 128.8 23C171.7 21.7 214.3 24.3 257.2 26.8C300 29.3 343 31.7 385.8 29.5C428.7 27.3 471.3 20.7 514.2 21C557 21.3 600 28.7 642.8 29C685.7 29.3 728.3 22.7 771.2 19.7C814 16.7 857 17.3 878.5 17.7L900 18L900 0L878.5 0C857 0 814 0 771.2 0C728.3 0 685.7 0 642.8 0C600 0 557 0 514.2 0C471.3 0 428.7 0 385.8 0C343 0 300 0 257.2 0C214.3 0 171.7 0 128.8 0C86 0 43 0 21.5 0L0 0Z" fill="#c62368"></path></svg>