<svg id="visual" viewBox="0 0 900 300" width="900" height="300" xmlns="http://www.w3.org/2000/svg" xmlns:xlink="http://www.w3.org/1999/xlink" version="1.1"><path d="M0 49L90 37L180 25L270 40L360 49L450 46L540 22L630 34L720 43L810 37L900 40L900 0L810 0L720 0L630 0L540 0L450 0L360 0L270 0L180 0L90 0L0 0Z" fill="#1affc6"></path><path d="M0 112L90 118L180 100L270 103L360 148L450 106L540 88L630 139L720 136L810 142L900 97L900 38L810 35L720 41L630 32L540 20L450 44L360 47L270 38L180 23L90 35L0 47Z" fill="#00e1fa"></path><path d="M0 154L90 148L180 139L270 139L360 178L450 160L540 145L630 169L720 187L810 187L900 139L900 95L810 140L720 134L630 137L540 86L450 104L360 146L270 101L180 98L90 116L0 110Z" fill="#00b9ff"></path><path d="M0 184L90 205L180 205L270 184L360 223L450 190L540 184L630 223L720 256L810 247L900 211L900 137L810 185L720 185L630 167L540 143L450 158L360 176L270 137L180 137L90 146L0 152Z" fill="#0083ff"></path><path d="M0 301L90 301L180 301L270 301L360 301L450 301L540 301L630 301L720 301L810 301L900 301L900 209L810 245L720 254L630 221L540 182L450 188L360 221L270 182L180 203L90 203L0 182Z" fill="#6600ff"></path></svg>