<svg id="visual" viewBox="0 0 900 300" width="900" height="300" xmlns="http://www.w3.org/2000/svg" xmlns:xlink="http://www.w3.org/1999/xlink" version="1.1"><rect x="0" y="0" width="900" height="300" fill="#C62368"></rect><path d="M0 89L15 89.8C30 90.7 60 92.3 90 84.3C120 76.3 150 58.7 180 57.5C210 56.3 240 71.7 270 78.8C300 86 330 85 360 87.3C390 89.7 420 95.3 450 90.2C480 85 510 69 540 58.5C570 48 600 43 630 49.2C660 55.3 690 72.7 720 76.3C750 80 780 70 810 62.3C840 54.7 870 49.3 885 46.7L900 44L900 0L885 0C870 0 840 0 810 0C780 0 750 0 720 0C690 0 660 0 630 0C600 0 570 0 540 0C510 0 480 0 450 0C420 0 390 0 360 0C330 0 300 0 270 0C240 0 210 0 180 0C150 0 120 0 90 0C60 0 30 0 15 0L0 0Z" fill="#1a75ff" stroke-linecap="round" stroke-linejoin="miter"></path></svg>